<?xml version="1.0" standalone="no"?>
<!DOCTYPE svg PUBLIC "-//W3C//DTD SVG 20010904//EN"
 "http://www.w3.org/TR/2001/REC-SVG-20010904/DTD/svg10.dtd">
<svg version="1.0" xmlns="http://www.w3.org/2000/svg"
 width="693.000000pt" height="693.000000pt" viewBox="0 0 693.000000 693.000000"
 preserveAspectRatio="xMidYMid meet">
<metadata>
Created by potrace 1.11, written by Peter Selinger 2001-2013
</metadata>
<g transform="translate(0.000000,693.000000) scale(0.100000,-0.100000)"
fill="#000000" stroke="none">
<path d="M0 3465 l0 -3465 3465 0 3465 0 0 3465 0 3465 -3465 0 -3465 0 0
-3465z m3626 2765 c676 -53 1233 -290 1712 -727 l84 -76 -304 -304 c-166 -166
-306 -303 -309 -303 -4 0 -58 30 -120 66 -272 158 -600 304 -814 363 -226 62
-441 77 -666 45 -792 -110 -1419 -715 -1565 -1509 -26 -142 -26 -498 0 -640
146 -794 773 -1399 1565 -1509 225 -32 440 -17 666 45 214 59 542 205 814 363
62 36 116 66 120 66 3 0 143 -137 309 -303 l304 -304 -84 -76 c-414 -379 -925
-622 -1468 -701 -289 -41 -522 -41 -810 0 -478 69 -945 273 -1330 580 -110 88
-337 315 -424 424 -306 386 -504 835 -576 1307 -47 312 -47 545 0 856 72 472
270 921 576 1307 87 109 315 337 424 424 450 357 963 557 1550 605 152 12 202
12 346 1z m29 -1859 c357 -74 642 -359 716 -716 64 -308 -30 -622 -252 -844
-222 -222 -536 -316 -844 -252 -357 74 -642 359 -716 716 -64 308 30 622 252
844 222 222 536 316 844 252z"/>
</g>
</svg>
